<svg xmlns="http://www.w3.org/2000/svg" id="Vrstva_1" data-name="Vrstva 1" viewBox="0 0 360.18 335.59"><defs><style>.cls-1{fill:#cae6f8}</style></defs><path d="M115.06 274.45c0-4.75.08-10.07.2-13.22h-.19c-1.31 5.68-4.09 14.95-6.76 23.66h-5.13c-2.03-7.62-4.91-18.18-6.13-23.74h-.19c.24 3.27.35 8.99.35 13.77v9.97h-5.49v-27.84h8.96c2.17 7.27 4.6 16.4 5.44 20.55h.05c.68-3.66 3.74-13.41 6.06-20.55h8.63v27.84h-5.81v-10.44ZM133.65 284.89v-9.84c0-.31-.05-.6-.23-.89l-9.6-17.11h6.81c2.15 4.2 4.94 9.79 6.33 12.81 1.21-2.92 4.26-8.78 6.36-12.81h6.3l-9.72 17.02c-.12.2-.23.32-.23.89v9.93zM160.16 280.48l15.27-18.49h-14.59v-4.93h21.44v4.88l-14.76 18.02h15.55l-.75 4.93h-22.16zM212.14 270.88c0 7.75-4.65 14.42-13.69 14.42s-13.31-6.35-13.31-14.32 5.05-14.32 13.7-14.32c8.14 0 13.3 5.71 13.3 14.23Zm-20.78-.03c0 5.43 2.39 9.55 7.32 9.55 5.35 0 7.25-4.48 7.25-9.44 0-5.27-2.16-9.41-7.35-9.41s-7.22 3.88-7.22 9.3M217.4 284.89v-27.84h7.46c3.48 6.25 9.9 17.52 11.18 20.56h.08c-.31-2.91-.31-7.74-.31-12.31v-8.25h5.46v27.84h-7.08c-2.99-5.44-10.11-18.39-11.49-21.6h-.08c.2 2.43.27 8.15.27 13.14v8.47h-5.49ZM267.08 272.88h-13.31v7.07h14.69l-.71 4.93h-19.81v-27.84h19.74v4.93h-13.9v5.96h13.31v4.93Z" class="cls-1"/><rect width="5.04" height="189.98" x="91.72" y="29.18" class="cls-1" rx="2.52" ry="2.52"/><rect width="5.04" height="269.53" x="177.56" y="-2.43" class="cls-1" rx="2.52" ry="2.52" transform="rotate(-40.45 180.088 132.334)"/><rect width="5.04" height="72.01" x="148.08" y="115.31" class="cls-1" rx="2.52" ry="2.52" transform="rotate(-40.45 150.608 151.313)"/><rect width="5.04" height="67.85" x="126.36" y="123.35" class="cls-1" rx="2.52" ry="2.52"/><rect width="5.04" height="174.04" x="263.42" y="26.26" class="cls-1" rx="2.52" ry="2.52"/><rect width="5.04" height="117.78" x="219.65" y="5.41" class="cls-1" rx="2.52" ry="2.52" transform="rotate(50.93 222.164 64.298)"/><rect width="5.04" height="52.91" x="214.42" y="82.12" class="cls-1" rx="2.52" ry="2.52" transform="rotate(50.93 216.934 108.572)"/><rect width="5.04" height="73.56" x="233" y="91" class="cls-1" rx="2.52" ry="2.52"/><rect width="5.04" height="51.89" x="248.22" y="154" class="cls-1" rx="2.52" ry="2.52" transform="rotate(-40.45 250.744 179.944)"/><rect width="5.04" height="49.54" x="109.07" y="177.97" class="cls-1" rx="2.52" ry="2.52" transform="rotate(50.93 111.593 202.737)"/></svg>